<svg xmlns="http://www.w3.org/2000/svg" viewBox="0 0 9.41 9.41"><defs><style>.cls-1{fill:#00b373;}</style></defs><title>Asset 4</title><g id="Layer_2" data-name="Layer 2"><g id="Layer_1-2" data-name="Layer 1"><path class="cls-1" d="M1.85.44l.09,0,.63.93c.28.44.58.88.63,1a.55.55,0,0,1-.07.32h0c-.09.18-.53.94-.53.94l-.06.11.06.11A10,10,0,0,0,4,5.44a10,10,0,0,0,1.6,1.37l.11.06.11-.06s.76-.44.94-.53a.47.47,0,0,1,.32-.07L8.94,7.47a.29.29,0,0,1,0,.32,7.57,7.57,0,0,1-.6.72,4,4,0,0,1-.39.36A1.37,1.37,0,0,1,7.7,9a3,3,0,0,1-1.32-.35A12,12,0,0,1,3.21,6.2,11.88,11.88,0,0,1,.78,3,3,3,0,0,1,.43,1.7s0-.08.11-.2A3.13,3.13,0,0,1,.9,1.11a6.26,6.26,0,0,1,.72-.6h0A.29.29,0,0,1,1.85.44m0-.44a.83.83,0,0,0-.52.16A7.53,7.53,0,0,0,.61.8a4.12,4.12,0,0,0-.41.44.77.77,0,0,0-.2.48A3.66,3.66,0,0,0,.4,3.21,12,12,0,0,0,2.91,6.5,12,12,0,0,0,6.2,9a3.66,3.66,0,0,0,1.49.4.72.72,0,0,0,.48-.2,5.15,5.15,0,0,0,.44-.4A7.63,7.63,0,0,0,9.25,8a.65.65,0,0,0-.06-.92C9,7,7.5,6,7.27,5.85a.73.73,0,0,0-.74.05l-.84.47A8.67,8.67,0,0,1,4.28,5.13,8.67,8.67,0,0,1,3,3.72c.08-.15.37-.65.47-.84a.73.73,0,0,0,.05-.75c-.06-.1-.35-.53-.64-1L2.29.22h0A.56.56,0,0,0,1.89,0"/></g></g></svg>