<svg xmlns="http://www.w3.org/2000/svg" viewBox="0 0 29.48 29.49"><defs><style>.cls-1{fill:#00b373;}</style></defs><title>Asset 1</title><g id="Layer_2" data-name="Layer 2"><g id="Layer_1-2" data-name="Layer 1"><path class="cls-1" d="M22.63,21.44a.67.67,0,0,0-.64.46,10.43,10.43,0,0,0-.55,3.3v4.29h1.34V25.2a9,9,0,0,1,.48-2.87.66.66,0,0,0,0-.31.64.64,0,0,0-.11-.3,1,1,0,0,0-.24-.21.67.67,0,0,0-.31-.07m-1.86-5.36h4V17.3c0,.1,0,.13-.19.13H21c-.17,0-.19,0-.19-.13Zm2-14.74a5.32,5.32,0,0,1,5.36,5.3A4,4,0,0,1,26.67,10a11.51,11.51,0,0,0-1.21,1.21A2.92,2.92,0,0,0,24.79,13v1.7H23.45V9l1.81-1.81a.73.73,0,0,0,.2-.35.79.79,0,0,0,0-.4.63.63,0,0,0-.26-.3A.7.7,0,0,0,24.78,6a.68.68,0,0,0-.46.21L22.78,7.77,21.24,6.23,21,6.08,20.76,6a.71.71,0,0,0-.37.12.67.67,0,0,0-.25.3.65.65,0,0,0,0,.39.64.64,0,0,0,.19.35L22.11,9v5.75H20.77V13a2.53,2.53,0,0,0-.69-1.64c-.36-.42-.78-.77-1.18-1.18a4.57,4.57,0,0,1-1.48-3.58,5.32,5.32,0,0,1,5.36-5.3m0-1.34a6.68,6.68,0,0,0-6.7,6.64,6.14,6.14,0,0,0,1.86,4.52c.45.45.86.81,1.13,1.12a1.11,1.11,0,0,1,.36.76V17.3a1.52,1.52,0,0,0,1.46,1.46,2,2,0,0,0,3.78,0,1.52,1.52,0,0,0,1.46-1.46V13a1.41,1.41,0,0,1,.38-1A14,14,0,0,1,27.6,11a5.68,5.68,0,0,0,1.88-4.33A6.68,6.68,0,0,0,22.78,0M14.69,0C10.44,0,7.57,1.29,5.76,3.35a13.16,13.16,0,0,0-2.82,7.42L.22,15.45h0a1.76,1.76,0,0,0,.67,2.38l0,0,2,1,.66,4.53h0a4.26,4.26,0,0,0,1.27,2.36,3.44,3.44,0,0,0,2.49,1h2v2.68h1.34V26.14a.63.63,0,0,0-.2-.47.67.67,0,0,0-.47-.2H7.31a2.12,2.12,0,0,1-1.5-.65,3,3,0,0,1-.87-1.61l-.71-4.87a.66.66,0,0,0-.12-.3.69.69,0,0,0-.24-.21L1.54,16.67a.37.37,0,0,1-.15-.56l2.76-4.75a.78.78,0,0,0,.09-.27A12.12,12.12,0,0,1,6.76,4.24c1.54-1.75,3.94-2.9,7.93-2.9.45,0,.9,0,1.33.06l.26,0,.24-.13.16-.2.08-.26,0-.26L16.6.3,16.39.14,16.14.07A13.68,13.68,0,0,0,14.69,0"/></g></g></svg>