<svg xmlns="http://www.w3.org/2000/svg" viewBox="0 0 9.42 10.05"><defs><style>.cls-1{fill:#00b373;}</style></defs><title>Asset 6</title><g id="Layer_2" data-name="Layer 2"><g id="Layer_1-2" data-name="Layer 1"><path class="cls-1" d="M6.85,2.56h1.5V2.14H6.85Zm-1.06,0h.64V2.14H5.79ZM7.71,1.5h.64V1.07H7.71Zm-1.92,0H7.28V1.07H5.79ZM4.08.85a1.72,1.72,0,0,0-1.75,1A3.61,3.61,0,0,0,2.35,4a.7.7,0,0,0-.2.5.93.93,0,0,0,.23.64l.23.12a2.07,2.07,0,0,0,.12.62,1.19,1.19,0,0,0,.28.4V7a1.14,1.14,0,0,1-.52.46c-.27.15-.62.27-1,.43a3.24,3.24,0,0,0-1,.66A2,2,0,0,0,0,9.82v.23H8.58V9.82a2,2,0,0,0-.52-1.25,3.36,3.36,0,0,0-1-.66c-.35-.16-.7-.29-1-.43A1,1,0,0,1,5.57,7V6.25a1.36,1.36,0,0,0,.27-.36A1.32,1.32,0,0,0,6,5.34a.21.21,0,0,0-.21-.21.21.21,0,0,0-.22.21,1.28,1.28,0,0,1-.11.36A1.31,1.31,0,0,1,5.23,6l-.09.07v1l0,0a1.43,1.43,0,0,0,.73.7c.3.16.66.29,1,.44a2.93,2.93,0,0,1,.86.57,1.64,1.64,0,0,1,.35.75H.49a1.46,1.46,0,0,1,.35-.75,2.61,2.61,0,0,1,.86-.56c.33-.16.68-.28,1-.45a1.46,1.46,0,0,0,.73-.7v-1l-.09-.07a1.12,1.12,0,0,1-.22-.34A1.54,1.54,0,0,1,3,5.13v-.2h-.2l-.12-.08a.51.51,0,0,1-.11-.35c0-.18.08-.23.11-.25l.14-.08,0-.15a3.51,3.51,0,0,1-.06-2c.19-.48.55-.76,1.35-.76a.21.21,0,0,0,.21-.21A.22.22,0,0,0,4.08.85M5.14.43H8.78A.21.21,0,0,1,9,.64V3a.21.21,0,0,1-.21.22H6.85l-.19.13a2.68,2.68,0,0,1-.27.49,1.55,1.55,0,0,1-.3.32,2.31,2.31,0,0,0,0-.38A2.42,2.42,0,0,0,6,3.35a.2.2,0,0,0-.2-.14H5.14A.21.21,0,0,1,4.93,3V.64A.21.21,0,0,1,5.14.43m0-.43A.64.64,0,0,0,4.5.64V3a.64.64,0,0,0,.64.64h.47a.61.61,0,0,1,0,.19,1.08,1.08,0,0,1-.05.57V4.6l.19.1a1.21,1.21,0,0,0,.94-.62A2.24,2.24,0,0,0,7,3.63h1.8A.64.64,0,0,0,9.42,3V.64A.64.64,0,0,0,8.78,0Z"/></g></g></svg>
