<svg xmlns="http://www.w3.org/2000/svg" viewBox="0 0 30.83 28.88"><defs><style>.cls-1{fill:#00b373;}</style></defs><title>Asset 2</title><g id="Layer_2" data-name="Layer 2"><g id="Layer_1-2" data-name="Layer 1"><path class="cls-1" d="M0,3.35V26.14H.67a38.89,38.89,0,0,1,14.47,2.62l.28.12.27-.12a38.89,38.89,0,0,1,14.47-2.62h.67V3.35H29.49v21.5a39.86,39.86,0,0,0-14.07,2.6,40,40,0,0,0-14.08-2.6V3.35ZM26.81,1.4V22.18a29.62,29.62,0,0,0-10.72,2.29V3.79A29.43,29.43,0,0,1,26.81,1.4M4,1.4A29.43,29.43,0,0,1,14.74,3.79V24.47A29.62,29.62,0,0,0,4,22.18ZM2.68,0V23.46h.67a29.17,29.17,0,0,1,11.76,2.61l.31.15.3-.15a29.23,29.23,0,0,1,11.76-2.61h.67V0h-.67A29.35,29.35,0,0,0,15.42,2.64,29.37,29.37,0,0,0,3.35,0Z"/></g></g></svg>