<svg xmlns="http://www.w3.org/2000/svg" viewBox="0 0 10.09 7.26"><defs><style>.cls-1{fill:#00b373;}</style></defs><title>Asset 5</title><g id="Layer_2" data-name="Layer 2"><g id="Layer_1-2" data-name="Layer 1"><path class="cls-1" d="M.2,6.86l-.14.06L0,7.06l.06.14.14.06H2l.14-.06.07-.14-.07-.14L2,6.86Zm0-1-.14.06L0,6.05l.06.15.14.06H2.63l.14-.06.06-.15-.06-.14-.14-.06Zm0-1H.13L.06,4.9,0,5,0,5l0,.08,0,.07.07,0,.07,0h3l.15-.06L3.43,5,3.38,4.9l-.15-.06Zm0-1-.14.06L0,4l.06.15.14.06H4l.14-.06L4.24,4l-.06-.14L4,3.83ZM9.69,1.44v4.4L7,3.75,9.69,1.44M0,0V3L0,3.1l0,.07.07,0,.07,0,.08,0,.07,0,0-.07L.41,3V1.44l2.27,2H3.3L.41.91V.4H9.69V.91l-4,3.46a1.07,1.07,0,0,1-.67.27h-1l0,0A1.42,1.42,0,0,0,5.05,5,1.4,1.4,0,0,0,6,4.67L6.73,4l3,2.34v.5H3.15l-.06,0L3,7v.16l0,.06.06,0h6.94V0Z"/></g></g></svg>
